<?xml version="1.0" standalone="no"?>
<!DOCTYPE svg PUBLIC "-//W3C//DTD SVG 20010904//EN"
 "http://www.w3.org/TR/2001/REC-SVG-20010904/DTD/svg10.dtd">
<svg version="1.0" xmlns="http://www.w3.org/2000/svg"
 width="500.000000pt" height="500.000000pt" viewBox="0 0 500.000000 500.000000"
 preserveAspectRatio="xMidYMid meet">

<g transform="translate(0.000000,500.000000) scale(0.100000,-0.100000)"
fill="#000000" stroke="none">
<path d="M1881 2778 c-43 -58 -134 -245 -165 -340 -34 -99 -34 -157 -2 -187
l23 -22 6 51 c3 28 20 77 38 110 35 66 119 160 143 160 38 0 1 -75 -65 -130
l-32 -26 13 -55 c31 -133 67 -177 126 -150 29 13 31 27 5 40 -23 13 -77 96
-86 133 -5 21 -3 27 14 33 12 3 32 21 46 40 55 71 38 156 -25 133 -28 -9 -96
-76 -132 -128 -15 -21 -14 -16 3 30 28 77 89 177 145 239 46 51 47 54 33 80
-24 42 -52 38 -88 -11z"/>
<path d="M2745 2779 c-14 -22 -31 -51 -37 -65 -6 -13 -14 -23 -17 -21 -52 27
-62 30 -73 19 -15 -15 -20 -110 -6 -118 5 -3 23 9 39 27 l29 34 -14 -35 c-8
-19 -21 -52 -29 -72 l-16 -38 -29 17 c-26 15 -32 15 -48 3 -24 -21 -43 -70
-59 -153 -14 -73 -8 -110 18 -120 11 -4 18 6 26 39 12 45 71 187 77 182 1 -2
-6 -35 -17 -73 -26 -94 -25 -137 5 -172 l24 -27 7 54 c19 143 90 330 170 450
l54 80 -29 15 c-41 21 -47 20 -75 -26z"/>
<path d="M2856 2768 c-87 -138 -186 -376 -186 -450 0 -32 23 -78 39 -78 4 0
12 26 19 59 7 35 27 82 50 117 38 58 113 134 132 134 32 0 -11 -83 -66 -128
l-34 -28 20 -80 c11 -43 28 -90 39 -104 21 -30 58 -37 86 -16 20 14 19 16 -16
53 -33 34 -79 110 -79 130 0 4 14 16 30 25 57 32 86 110 59 159 -19 36 -84 0
-151 -85 -28 -36 -38 -43 -33 -26 23 74 124 239 174 284 26 23 27 48 3 69 -31
28 -51 20 -86 -35z"/>
<path d="M1447 2744 c-69 -16 -117 -40 -117 -57 0 -7 7 -22 15 -34 l15 -22 43
25 c59 33 68 32 56 -10 -8 -29 -74 -189 -145 -354 -14 -31 -13 -34 10 -57 35
-34 44 -32 56 18 13 52 71 206 79 211 3 2 15 0 26 -4 14 -5 25 -24 34 -61 22
-86 62 -179 82 -189 19 -11 69 5 69 22 0 5 -14 29 -30 53 -37 53 -91 165 -85
175 3 4 17 10 32 13 47 10 118 62 136 100 66 138 -68 222 -276 171z m250 -60
c32 -32 26 -77 -17 -116 -32 -29 -114 -58 -166 -58 l-33 0 47 99 47 100 48 0
c39 1 53 -4 74 -25z"/>
<path d="M2250 2746 c0 -7 -25 -65 -55 -127 -61 -129 -127 -320 -123 -358 2
-15 13 -31 28 -38 l25 -12 12 87 c15 104 54 242 90 320 l26 57 13 -123 c16
-165 43 -308 59 -322 7 -6 29 -14 49 -17 35 -5 36 -5 36 25 0 112 103 419 154
462 15 12 15 14 0 31 -29 32 -50 23 -73 -31 -27 -62 -87 -269 -96 -332 -4 -27
-11 -48 -15 -48 -16 0 -30 129 -30 267 l0 141 -40 16 c-49 20 -60 20 -60 2z"/>
<path d="M3652 2620 c-33 -53 -41 -59 -70 -60 -26 0 -33 -4 -30 -17 2 -10 12
-19 24 -21 20 -3 19 -4 -8 -85 -35 -104 -36 -146 -3 -177 14 -13 36 -22 52
-22 115 5 124 7 143 32 11 14 20 28 20 31 0 9 -40 34 -66 43 -19 6 -23 2 -31
-30 -9 -41 -32 -61 -58 -50 -26 9 -15 103 22 191 27 66 31 70 66 76 48 8 59
19 19 19 -18 0 -32 4 -32 8 0 5 14 28 30 50 17 23 30 44 30 46 0 4 -57 26 -67
26 -2 0 -20 -27 -41 -60z"/>
<path d="M3306 2568 c-31 -47 -88 -182 -99 -233 -11 -53 -1 -105 20 -105 5 0
26 25 48 56 40 56 153 170 160 162 3 -2 -4 -28 -15 -56 -25 -64 -25 -84 -2
-112 22 -27 67 -30 90 -6 15 15 14 16 -12 16 -28 0 -28 2 -23 39 6 47 46 139
71 164 24 23 5 47 -37 47 -26 0 -47 -16 -129 -100 -54 -55 -98 -97 -98 -92 0
4 22 45 49 92 52 88 53 97 13 133 -20 18 -21 18 -36 -5z"/>
<path d="M3047 2530 c-24 -21 -55 -64 -70 -94 -45 -91 -32 -186 25 -186 24 0
68 39 98 86 l27 43 -1 -62 c-1 -61 -1 -62 27 -62 28 0 28 1 31 70 2 47 12 90
29 130 25 59 23 74 -10 75 -6 0 -33 -37 -59 -82 -61 -108 -101 -158 -125 -158
-26 0 -24 24 9 95 26 55 69 102 118 131 19 11 19 12 0 33 -28 30 -51 26 -99
-19z"/>
</g>
</svg>
